<?xml version="1.0" standalone="no"?>
<!DOCTYPE svg PUBLIC "-//W3C//DTD SVG 20010904//EN"
 "http://www.w3.org/TR/2001/REC-SVG-20010904/DTD/svg10.dtd">
<svg version="1.0" xmlns="http://www.w3.org/2000/svg"
 width="500.000000pt" height="500.000000pt" viewBox="0 0 500.000000 500.000000"
 preserveAspectRatio="xMidYMid meet">

<g transform="translate(0.000000,500.000000) scale(0.100000,-0.100000)"
fill="#000000" stroke="none">
<path d="M2203 4523 c-7 -2 -13 -13 -13 -24 0 -14 40 -39 173 -105 191 -95
273 -149 358 -236 77 -78 114 -154 114 -233 0 -42 -6 -70 -18 -88 l-18 -28
-56 85 c-59 89 -76 104 -99 85 -20 -17 -18 -23 31 -90 67 -91 145 -252 145
-300 0 -46 -27 -79 -65 -79 -23 0 -80 41 -116 84 -21 26 -45 15 -62 -27 -29
-68 -119 -71 -153 -6 -18 36 -51 38 -64 5 -19 -50 -82 -60 -137 -23 -19 12
-69 74 -113 138 -43 63 -96 132 -119 152 -78 70 -166 98 -166 53 0 -14 16 -28
50 -45 61 -32 106 -76 164 -160 l43 -64 -42 -79 c-47 -88 -80 -222 -80 -325
l0 -61 -87 -6 c-222 -14 -304 -24 -327 -40 -31 -20 -47 -90 -81 -345 -34 -261
-156 -1487 -153 -1531 l3 -34 1380 -1 c759 0 1386 1 1392 3 10 3 13 148 13
678 0 371 -1 675 -2 676 -2 1 -127 5 -278 8 l-275 5 -8 60 c-23 170 -68 417
-81 448 -19 47 -52 56 -253 65 l-158 7 -7 108 c-9 129 -40 266 -73 322 -13 22
-44 60 -70 85 -64 62 -70 81 -40 125 57 85 59 172 5 282 -39 80 -148 194 -250
261 -51 34 -385 205 -393 201 -1 0 -8 -3 -14 -6z m726 -1012 c26 -61 51 -203
51 -292 l0 -69 -483 0 -484 0 4 58 c8 104 32 214 62 278 17 35 34 64 39 64 5
0 19 -12 33 -26 57 -62 146 -81 206 -44 l33 20 36 -22 c55 -32 115 -29 162 9
l38 31 29 -24 c89 -71 203 -44 221 52 8 43 23 33 53 -35z m-154 -420 l210 -6
5 -150 c5 -142 6 -150 25 -150 19 0 20 8 23 145 1 79 6 148 10 151 8 7 304 -7
333 -16 22 -7 33 -43 59 -195 58 -339 60 -380 60 -1016 l0 -594 -265 0 c-229
0 -265 2 -265 15 0 12 -20 15 -119 15 l-119 0 -6 68 c-4 37 -8 82 -11 100 l-4
32 329 0 c285 0 331 2 344 16 14 14 16 75 16 519 0 444 -2 505 -16 519 -14 14
-99 16 -783 16 -583 0 -770 -3 -779 -12 -8 -8 -12 -66 -12 -195 l0 -183 -127
0 c-104 0 -130 -3 -145 -17 -17 -15 -18 -43 -18 -460 l0 -443 -75 0 c-55 0
-75 3 -75 13 0 7 27 285 60 618 89 886 124 1152 155 1175 16 12 71 18 261 30
l101 6 6 -53 c4 -30 7 -100 7 -155 0 -78 3 -104 15 -114 12 -10 18 -10 31 1
13 11 15 33 8 166 l-7 152 129 4 c221 5 421 4 639 -2z m585 -1066 l0 -485
-632 2 -633 3 -3 299 c-1 201 -6 304 -13 313 -8 9 -43 13 -125 13 l-114 0 0
163 c0 90 3 167 7 170 3 4 345 7 760 7 l753 0 0 -485z m600 380 c0 -13 -23
-15 -167 -13 -122 2 -167 6 -171 16 -3 9 35 12 167 12 147 0 171 -2 171 -15z
m5 -55 c-4 -6 -73 -10 -176 -10 -106 0 -169 4 -169 10 0 6 65 10 176 10 114 0
173 -3 169 -10z m-21 -119 c32 -35 -13 -83 -52 -55 -26 18 -28 37 -6 58 20 21
37 20 58 -3z m-2136 -133 l3 -48 -135 0 -136 0 0 34 c0 57 25 67 155 64 l110
-3 3 -47z m245 40 c12 -6 17 -21 17 -49 l0 -40 -112 3 -113 3 -3 33 c-6 61 -2
63 100 61 51 -1 101 -6 111 -11z m-243 -366 c0 -187 3 -261 12 -270 8 -8 52
-12 130 -12 l118 0 0 -70 0 -70 -265 0 -265 0 0 340 0 340 135 0 135 0 0 -258z
m260 13 l0 -246 -112 3 -113 3 -3 230 c-1 126 0 235 2 242 4 10 36 13 116 13
l110 0 0 -245z m1880 200 c0 -13 -25 -15 -164 -15 -150 0 -187 5 -169 24 3 3
80 6 170 6 138 0 163 -2 163 -15z m0 -70 c0 -6 -63 -11 -165 -13 -143 -2 -165
0 -165 13 0 13 22 15 165 13 102 -2 165 -7 165 -13z m0 -70 c0 -13 -24 -15
-160 -15 -136 0 -160 2 -160 15 0 13 24 15 160 15 136 0 160 -2 160 -15z m5
-70 c0 -6 -61 -11 -157 -13 -137 -2 -158 0 -158 13 0 13 21 15 158 13 96 -2
157 -7 157 -13z m43 -237 c7 -7 12 -41 12 -85 0 -61 -3 -74 -19 -83 -25 -13
-72 -13 -105 0 -25 9 -26 13 -26 83 0 43 5 78 12 85 7 7 35 12 63 12 28 0 56
-5 63 -12z m-1514 -135 c-3 -49 -7 -94 -10 -100 -2 -10 -37 -13 -129 -13 -119
0 -125 -1 -125 -20 0 -19 -5 -21 -62 -18 l-63 3 -3 118 -3 117 201 0 200 0 -6
-87z m-416 -110 l-3 -38 -260 0 -260 0 -3 38 -3 37 266 0 266 0 -3 -37z"/>
<path d="M1764 1289 c-10 -17 11 -26 51 -21 21 3 35 10 35 18 0 17 -75 20 -86
3z"/>
<path d="M705 1009 c-80 -23 -131 -118 -122 -225 8 -111 79 -184 176 -184 101
0 177 73 188 182 16 157 -102 268 -242 227z m135 -47 c67 -68 67 -230 0 -305
-24 -27 -35 -32 -74 -32 -82 0 -126 66 -126 190 0 68 25 134 61 159 13 9 43
16 67 16 34 0 49 -6 72 -28z"/>
<path d="M2894 1006 c-62 -27 -83 -99 -44 -149 11 -13 54 -46 95 -72 41 -25
80 -55 85 -65 28 -52 -6 -93 -75 -93 -53 0 -79 19 -106 78 l-18 40 2 -49 c3
-62 30 -85 108 -93 90 -9 149 34 149 108 0 42 -27 74 -98 115 -87 49 -112 73
-112 103 0 39 28 61 79 61 49 0 88 -31 97 -80 9 -42 24 -37 24 8 0 77 -101
125 -186 88z"/>
<path d="M3605 1002 c-110 -51 -148 -201 -82 -315 36 -62 93 -90 167 -85 71 5
118 37 149 101 46 94 13 239 -64 287 -49 30 -121 35 -170 12z m134 -28 c36
-25 61 -91 61 -159 0 -81 -14 -125 -51 -161 -24 -23 -39 -29 -75 -29 -39 0
-50 5 -74 32 -16 18 -34 49 -39 70 -25 87 -2 205 46 243 32 25 99 27 132 4z"/>
<path d="M983 1004 c4 -4 17 -12 29 -18 22 -11 23 -16 26 -194 2 -163 9 -210
25 -168 3 7 5 77 4 154 -1 93 1 138 8 132 6 -5 64 -76 130 -158 66 -83 123
-148 127 -146 3 2 6 93 5 201 -2 144 -5 197 -14 200 -9 3 -13 -32 -15 -143
l-3 -147 -109 136 c-110 137 -135 157 -194 157 -14 0 -22 -3 -19 -6z"/>
<path d="M1400 1000 c0 -5 9 -10 19 -10 10 0 22 -7 25 -16 3 -9 6 -94 6 -190
l0 -174 135 0 c163 0 185 18 28 22 l-108 3 -3 175 c-2 150 -5 177 -19 188 -20
14 -83 16 -83 2z"/>
<path d="M1770 830 c0 -106 4 -189 10 -201 8 -15 21 -19 58 -19 44 0 46 1 22
13 l-25 13 -5 184 -5 185 -27 3 -28 3 0 -181z"/>
<path d="M1900 1002 c0 -4 10 -12 23 -17 21 -10 22 -14 25 -192 2 -152 5 -183
17 -183 12 0 15 27 17 154 l3 154 120 -150 c66 -82 125 -154 132 -160 10 -8
13 31 13 197 0 161 -3 206 -12 203 -9 -3 -14 -45 -18 -146 l-5 -141 -105 131
c-69 86 -116 135 -137 144 -35 15 -73 18 -73 6z"/>
<path d="M2310 1000 c0 -5 9 -10 19 -10 10 0 22 -7 25 -16 3 -9 6 -94 6 -190
l0 -174 113 0 c125 0 138 5 153 64 l7 30 -30 -33 c-27 -32 -35 -34 -106 -39
-53 -3 -77 -1 -78 7 0 6 0 44 -1 84 l0 72 82 3 c58 2 80 6 77 15 -2 8 -31 13
-79 15 l-76 3 -4 70 c-2 39 -1 73 1 75 2 2 37 4 76 4 73 0 93 -9 108 -50 3 -8
6 2 6 22 1 27 -4 40 -18 48 -26 13 -281 13 -281 0z"/>
<path d="M3148 999 c-13 -7 -18 -23 -18 -52 l0 -42 18 35 c16 33 21 35 70 38
l52 3 0 -185 0 -186 25 0 25 0 0 185 0 185 71 0 c52 0 70 3 67 13 -6 16 -284
22 -310 6z"/>
<path d="M3904 1001 c4 -6 13 -11 21 -11 22 0 25 -25 25 -206 l0 -175 28 3
c29 3 27 -6 31 151 1 20 6 27 21 27 13 0 32 -21 60 -68 22 -38 50 -78 63 -89
27 -25 67 -35 87 -23 11 7 8 11 -13 21 -37 17 -124 158 -105 170 7 5 18 9 25
9 21 0 53 52 53 87 0 80 -43 105 -194 111 -80 3 -107 2 -102 -7z m206 -40 c29
-21 39 -83 18 -108 -19 -23 -71 -43 -96 -37 -18 5 -21 15 -24 85 -3 72 -1 79
17 82 28 6 56 -2 85 -22z"/>
<path d="M4260 1001 c0 -6 7 -11 15 -11 27 0 35 -48 35 -216 l0 -165 117 3
118 3 17 35 c24 49 22 60 -5 28 -29 -36 -65 -48 -138 -48 l-59 0 0 85 0 85 80
0 c64 0 80 3 80 15 0 12 -16 15 -80 15 l-80 0 0 75 0 75 69 0 c86 0 100 -5
117 -44 l13 -31 0 35 c1 63 -3 65 -159 68 -95 2 -140 0 -140 -7z"/>
</g>
</svg>
