<?xml version="1.0" standalone="no"?>
<!DOCTYPE svg PUBLIC "-//W3C//DTD SVG 20010904//EN"
 "http://www.w3.org/TR/2001/REC-SVG-20010904/DTD/svg10.dtd">
<svg version="1.0" xmlns="http://www.w3.org/2000/svg"
 width="500.000000pt" height="500.000000pt" viewBox="0 0 500.000000 500.000000"
 preserveAspectRatio="xMidYMid meet">

<g transform="translate(0.000000,500.000000) scale(0.100000,-0.100000)"
fill="#000000" stroke="none">
<path d="M3580 3831 c-124 -26 -235 -53 -247 -59 -26 -14 -36 -45 -83 -249
l-34 -143 -1036 0 c-1034 0 -1037 0 -1064 -21 -20 -15 -26 -29 -26 -57 0 -20
72 -329 159 -686 125 -510 164 -653 180 -670 21 -21 24 -21 725 -24 l704 -2
-17 -68 -17 -67 -672 -5 c-738 -5 -695 -1 -708 -67 -5 -27 -1 -37 24 -63 l30
-30 706 0 705 0 27 23 c24 21 45 99 266 1002 132 539 243 983 246 987 4 4 99
26 211 49 229 48 251 58 251 119 0 45 -35 81 -79 79 -14 0 -127 -22 -251 -48z
m-1750 -624 c0 -20 29 -388 36 -450 l6 -57 -238 2 -238 3 -63 250 c-34 138
-62 253 -63 258 0 4 126 7 280 7 219 0 280 -3 280 -13z m657 -234 c-10 -137
-20 -254 -22 -260 -3 -10 -61 -13 -244 -13 l-239 0 -6 58 c-7 61 -36 429 -36
449 0 10 62 13 283 13 l283 0 -19 -247z m683 236 c0 -6 -27 -123 -61 -260
l-61 -249 -234 0 -234 0 0 28 c-1 39 31 465 36 480 5 16 554 18 554 1z m-1290
-632 c0 -25 26 -362 35 -445 l5 -52 -187 2 -187 3 -62 255 c-35 140 -63 256
-64 258 0 1 104 2 230 2 l230 0 0 -23z m572 -39 c-3 -35 -12 -151 -21 -258
l-16 -195 -192 -3 -192 -2 -5 42 c-7 51 -36 426 -36 457 0 21 1 21 233 21
l233 0 -4 -62z m567 45 c0 -10 -28 -126 -62 -258 l-62 -240 -182 -3 -183 -2 0
27 c0 41 31 444 36 471 l4 22 225 0 c208 0 225 -1 224 -17z"/>
<path d="M1644 1511 c-85 -39 -139 -149 -115 -236 16 -59 45 -101 92 -132 37
-24 53 -28 114 -28 61 0 77 4 113 27 140 93 123 309 -30 373 -50 20 -124 19
-174 -4z"/>
<path d="M2580 1507 c-88 -43 -133 -161 -101 -260 15 -43 79 -107 123 -124
137 -49 288 54 288 197 0 154 -169 256 -310 187z"/>
</g>
</svg>
